<?xml version="1.0" encoding="utf-8"?>
<!-- Generator: Adobe Illustrator 16.0.3, SVG Export Plug-In . SVG Version: 6.00 Build 0)  -->
<!DOCTYPE svg PUBLIC "-//W3C//DTD SVG 1.1//EN" "http://www.w3.org/Graphics/SVG/1.1/DTD/svg11.dtd">
<svg version="1.1" id="Ebene_1" xmlns="http://www.w3.org/2000/svg" xmlns:xlink="http://www.w3.org/1999/xlink" x="0px" y="0px"
	 width="271.167px" height="271.833px" viewBox="0 0 271.167 271.833" enable-background="new 0 0 271.167 271.833"
	 xml:space="preserve">
<path fill="#170338" d="M99.072,3.122c3.887,0.909,14.561,9.349,17.369,12c14.028,13.241,18.449,27.75,16.615,43.337
	c3.379-6.256,6.451-12.839,11.618-18.341c7.261-7.732,19.534-14.866,32.915-16.022c-1.185,3.604-2.353,7.007-4.418,10.349
	c-5.105,7.017-13.326,12.682-23.828,15.188c-1.885,0.449-6.706,0.937-7.836,1.896c-1.468,1.249-1.944,3.254-2.774,4.795
	c-2.044,3.798-4.111,7.761-6.549,11.398c-0.412,0.613-0.416,1.399-1.057,1.899l-0.256-0.098l0.354,0.04l-0.384-0.228
	c-0.588-1.648-0.188-4.3-0.325-6.063c-0.406-5.245-1.175-10.526-1.295-15.758c-6.308-2.269-12.208-6.359-16.571-10.415
	C101.365,26.613,97.808,15.525,99.072,3.122z"/>
<ellipse fill="#FFFFFF" cx="136.459" cy="158.148" rx="104.75" ry="90"/>
<path fill="#5D2FA5" d="M263.99,97.083c4.413-10.62,4.357-23.706-0.136-34.293c-0.281-0.66-0.579-1.313-0.893-1.959
	c-0.313-0.646-0.643-1.283-0.987-1.912s-0.705-1.25-1.08-1.862c-0.375-0.611-0.766-1.213-1.17-1.806
	c-0.405-0.593-0.825-1.175-1.258-1.747c-0.434-0.572-0.881-1.133-1.342-1.683c-0.461-0.55-0.936-1.088-1.423-1.615
	c-0.487-0.527-0.987-1.042-1.5-1.544s-1.037-0.992-1.573-1.468c-0.537-0.476-1.085-0.939-1.645-1.389s-1.129-0.885-1.71-1.307
	c-0.581-0.421-1.171-0.829-1.771-1.221c-0.602-0.393-1.211-0.771-1.83-1.133c-0.62-0.363-1.247-0.71-1.884-1.042
	c-0.637-0.332-1.28-0.647-1.933-0.948c-0.651-0.3-1.31-0.584-1.976-0.852c-0.71-0.279-1.426-0.541-2.147-0.784
	c-0.722-0.244-1.449-0.469-2.183-0.676c-0.733-0.207-1.472-0.395-2.214-0.566c-0.743-0.17-1.49-0.321-2.24-0.454
	c-0.75-0.132-1.503-0.247-2.259-0.342c-0.757-0.095-1.515-0.171-2.274-0.228c-0.76-0.057-1.521-0.096-2.283-0.115
	c-0.762-0.02-1.523-0.02-2.285,0c-0.762,0.019-1.522,0.057-2.282,0.114c-0.761,0.057-1.519,0.133-2.274,0.228
	c-0.756,0.095-1.509,0.208-2.259,0.341c-0.751,0.133-1.497,0.284-2.24,0.454c-0.743,0.169-1.481,0.357-2.215,0.565
	c-0.733,0.207-1.461,0.432-2.184,0.675c-0.722,0.243-1.438,0.504-2.146,0.783c-0.709,0.279-1.411,0.576-2.105,0.89
	c-9.994,4.403-18.468,13.658-22.358,23.799c-0.521,1.366-1.031,2.736-1.533,4.109c-3.919-1.99-8.175-4.087-12.448-5.141
	c-3.223-0.795-6.688-1.087-9.807-2.233c-2.671-0.981-4.833-3.126-7.238-4.594c-6.376-3.892-16.206-4.753-23.242-2.412
	c-4.457,1.483-7.943,3.911-11.349,7.084c-7.61,0.59-16.309,3.181-22.902,7.02c-0.222-0.722-0.462-1.438-0.72-2.147
	c-0.257-0.71-0.532-1.413-0.825-2.108c-0.293-0.696-0.604-1.384-0.931-2.064c-0.327-0.681-0.672-1.353-1.033-2.015
	s-0.738-1.316-1.133-1.96c-0.394-0.644-0.804-1.278-1.229-1.901c-0.427-0.624-0.868-1.236-1.324-1.837
	c-0.457-0.601-0.928-1.19-1.414-1.768c-0.486-0.578-0.987-1.142-1.502-1.694c-0.515-0.552-1.043-1.091-1.585-1.617
	c-0.542-0.525-1.097-1.037-1.664-1.535c-0.568-0.498-1.147-0.981-1.739-1.45c-0.592-0.469-1.195-0.922-1.81-1.36
	c-0.615-0.438-1.24-0.861-1.876-1.268c-0.637-0.407-1.282-0.797-1.938-1.172c-0.656-0.375-1.32-0.732-1.994-1.073
	c-6.659-3.451-15.381-5.298-22.876-4.596C35.41,37.238,24.81,42.417,16.701,51.95c-6.476,7.613-10.809,20.208-9.928,30.273
	c1.126,12.85,6.458,24.069,16.502,32.353c2.9,2.391,6.068,4.083,9.473,5.637c-2.015,3.094-3.431,6.315-4.491,9.85
	c-0.515,1.72-0.891,3.562-1.556,5.226c-0.888,2.221-2.516,4.219-3.656,6.322c-2.956,5.447-3.572,12.67-2.301,18.678
	c1.238,5.857,5.277,12.663,10.39,15.942c0.489,0.313,1.016,0.563,1.546,0.8c-1.84,7.243-2.134,15.08,1.791,21.713
	c2.703,4.567,6.207,7.541,10.981,9.736c-0.095,7.02,1.682,13.167,6.663,18.259c0.235,0.245,0.478,0.483,0.725,0.716
	s0.5,0.459,0.759,0.678c0.259,0.22,0.522,0.434,0.792,0.64s0.544,0.407,0.823,0.601c0.278,0.191,0.563,0.378,0.851,0.557
	c0.289,0.18,0.582,0.351,0.878,0.515c0.298,0.164,0.599,0.321,0.903,0.47c0.305,0.15,0.613,0.291,0.925,0.426
	c0.313,0.134,0.627,0.26,0.945,0.377c0.318,0.119,0.64,0.229,0.963,0.332c0.323,0.102,0.649,0.195,0.978,0.281
	s0.659,0.164,0.991,0.233s0.666,0.132,1.001,0.185c0.336,0.053,0.672,0.096,1.01,0.133c0.337,0.036,0.675,0.064,1.015,0.082
	c0.339,0.02,0.678,0.031,1.017,0.033c0.639,0.004,1.27-0.009,1.904-0.058c0.452,5.14,3.413,9.356,7.311,12.586
	c4.679,3.876,10.39,5.295,16.375,4.685c0.608-0.064,1.216-0.133,1.823-0.203c2.915,4.729,6.48,8.531,12.061,9.881
	c4.326,1.046,10.47,0.894,14.304-1.588c0.11-0.071,0.218-0.146,0.327-0.219c0.39,0.525,0.804,1.032,1.243,1.519
	c0.438,0.486,0.899,0.95,1.383,1.393s0.987,0.86,1.511,1.255c0.524,0.393,1.065,0.76,1.625,1.102s1.134,0.654,1.723,0.941
	c0.59,0.285,1.191,0.543,1.806,0.771c0.613,0.228,1.237,0.425,1.871,0.593c0.633,0.168,1.273,0.305,1.92,0.411
	c5.319,0.821,11.121-0.295,15.471-3.547c1.705-1.276,3.102-2.808,4.523-4.386c3.626,2.509,9.047,2.836,13.291,2.031
	c4.85-0.922,9.044-4.068,11.757-8.123c0.456-0.681,0.874-1.384,1.253-2.111c5.65,1.147,11.347,0.191,16.19-2.973
	c5.208-3.402,7.273-8.197,9.313-13.848c6.293-0.253,11.865-1.876,16.282-6.631c1.012-1.089,2.012-2.398,2.727-3.703
	c2.375-4.684,2.813-8.275,2.852-13.495c0.055-0.054,0.106-0.108,0.161-0.162c1.585-1.526,3.724-2.366,5.465-3.692
	c5.347-4.066,8.608-11.125,8.847-17.762c0.131-3.662-0.72-6.785-1.569-10.304c6.468-4.319,11.157-9.835,12.713-17.626
	c1.113-5.579,0.436-12.388-2.148-17.499c-1.121-2.217-2.685-4.285-3.58-6.608c-0.894-2.314-1.187-4.887-1.966-7.254
	c-0.94-2.858-2.496-5.509-3.806-8.21C251.882,115.901,259.77,107.239,263.99,97.083z M84.258,77.898
	c-21.128,0-38.224,13.737-38.224,30.713C46.034,91.636,63.13,77.898,84.258,77.898z M73.99,120.221
	c-2.105,2.61-5.438,4.428-8.793,4.678c-2.723,0.203-6.111-0.555-8.18-2.428c-2.222-2.014-2.37-4.938-2.56-7.722
	c0.107-0.666,0.206-1.206,0.522-1.815l0.425-0.127c0.95,1.599,0.626,4.454,1.237,6.325c0.585,1.788,1.404,2.41,3.063,3.215
	c2.624,1.271,5.496,1.404,8.219,0.361c3.109-1.192,5.768-3.849,6.628-7.111c0.479-1.82,0.517-3.584,1.301-5.348
	c0.039-0.088,0.081-0.176,0.121-0.264c0.083,0.048,0.174,0.085,0.25,0.145c0.405,0.32,0.469,0.616,0.519,1.116
	C77.042,114.324,75.908,117.843,73.99,120.221z M40.954,158.713c-2.6-1.105-4.096-3.222-5.173-5.727
	c-0.088-0.71-0.147-1.263,0.022-1.973c1.308,0.8,2.372,4.074,5.357,5.736c0.223,0.125,0.452,0.24,0.687,0.342
	c0.234,0.104,0.474,0.193,0.718,0.271s0.491,0.144,0.742,0.196s0.505,0.093,0.759,0.119c0.255,0.026,0.511,0.04,0.767,0.041
	c0.257,0,0.512-0.013,0.767-0.038c0.256-0.026,0.509-0.065,0.759-0.117c0.251-0.051,0.499-0.115,0.743-0.193
	c3.457-1.105,5.28-4.35,6.877-7.344l0.274,0.211c0.26,0.759,0.073,1.435-0.181,2.184c-0.114,0.334-0.245,0.66-0.393,0.98
	c-0.148,0.32-0.312,0.633-0.492,0.936c-0.179,0.305-0.374,0.598-0.584,0.881c-0.209,0.285-0.433,0.557-0.671,0.818
	c-0.237,0.261-0.487,0.509-0.751,0.744c-0.263,0.235-0.536,0.457-0.822,0.663c-0.286,0.208-0.581,0.399-0.887,0.577
	c-0.305,0.177-0.618,0.338-0.939,0.482C46.156,159.574,43.376,159.742,40.954,158.713z M51.286,180.607
	c-2.37-1.886-3.256-4.449-3.609-7.342c2.669,1.348,0.912,5.382,9.614,8.165c3.378-0.627,6.199-2.216,7.829-5.351
	c0.444-0.855,0.751-1.776,1.521-2.396l0.309,0.19l0.099,0.836c-0.397,1.389-0.838,2.561-1.697,3.748
	c-0.197,0.273-0.408,0.539-0.632,0.793s-0.46,0.496-0.707,0.728c-0.248,0.23-0.507,0.448-0.776,0.653
	c-0.269,0.205-0.548,0.396-0.836,0.574s-0.584,0.34-0.889,0.488c-0.304,0.148-0.615,0.281-0.933,0.399
	c-0.317,0.117-0.64,0.218-0.968,0.304c-0.327,0.086-0.658,0.155-0.992,0.208C56.038,183.008,53.323,182.229,51.286,180.607z
	 M78.016,202.013c-0.783,2.905-2.62,5.896-5.311,7.341c-2.313,1.242-5.013,1.568-7.517,0.73c-3.082-1.03-4.486-3.166-5.888-5.902
	c-0.316-1.059-0.507-2.153-0.728-3.235c1.657,2.422,3.326,5.083,5.909,6.622c1.699,1.014,3.637,1.45,5.571,0.903
	c3.683-1.042,5.839-4.577,7.578-7.697l0.438,0.419C78.08,201.481,78.092,201.73,78.016,202.013z M98.298,158.226
	c-0.242,0.266-0.497,0.52-0.764,0.761c-0.268,0.241-0.545,0.47-0.834,0.684c-0.29,0.215-0.589,0.414-0.897,0.599
	s-0.626,0.354-0.951,0.509c-0.324,0.154-0.656,0.292-0.995,0.413c-0.339,0.122-0.683,0.228-1.031,0.315
	c-0.35,0.087-0.701,0.158-1.058,0.211c-0.355,0.054-0.714,0.09-1.073,0.108c-0.359,0.015-0.72,0.011-1.079-0.01
	c-0.358-0.021-0.717-0.06-1.072-0.115c-0.356-0.056-0.708-0.129-1.057-0.22s-0.691-0.198-1.029-0.322
	c-0.339-0.124-0.67-0.264-0.994-0.421c-0.324-0.156-0.64-0.329-0.947-0.517s-0.605-0.39-0.893-0.606
	c-0.288-0.216-0.564-0.446-0.829-0.69c-2.848-2.616-3.544-6.308-3.707-9.991c0.008-0.336,0.005-0.686,0.06-1.019
	c0.105-0.643,0.157-1.109,0.673-1.513c1.198,0.974,0.444,5.93,2.08,8.75c1.989,3.43,5.129,4.383,8.696,5.387
	c1.98-0.578,4.048-1.416,5.649-2.746c3.685-3.062,3.179-7.8,3.503-12.1c0.173,0.059,0.425,0.134,0.572,0.236
	c0.498,0.343,0.693,0.867,0.751,1.445C101.432,150.985,100.771,155.461,98.298,158.226z M121.934,112.44
	c-1.081,2.649-3.577,4.858-6.229,5.863c-0.305,0.115-0.614,0.214-0.93,0.298c-0.314,0.083-0.633,0.149-0.955,0.2
	c-0.321,0.051-0.645,0.085-0.97,0.102c-0.325,0.018-0.65,0.018-0.976,0.002c-0.325-0.016-0.649-0.048-0.972-0.097
	c-0.321-0.049-0.64-0.115-0.955-0.197c-0.314-0.082-0.625-0.18-0.931-0.294c-0.305-0.113-0.603-0.242-0.895-0.387
	c-2.655-1.331-4.237-3.757-5.196-6.477c-0.115-0.431-0.141-0.655-0.034-1.089c1.14,0.474,2.473,3.13,3.392,4.133
	c0.64,0.699,1.549,1.305,2.354,1.809c1.705,1.069,3.587,1.615,5.576,1.081c3.724-1.001,6.046-4.692,7.865-7.806l0.29,0.347
	C122.391,110.84,122.28,111.589,121.934,112.44z M133.415,77.63c-0.438,1.116-0.968,2.203-1.709,3.153
	c-1.678,2.15-4.045,3.567-6.775,3.828c-2.679,0.256-5.354-0.419-7.42-2.181c-2.128-1.815-3.152-4.414-3.329-7.155
	c1.021,0.515,1.478,1.708,2.133,2.648c1.667,2.384,3.8,4.428,6.8,4.887c3.444,0.526,6.592-1.861,8.466-4.558
	c0.521-0.752,0.91-1.853,1.646-2.39C133.552,76.431,133.45,77.002,133.415,77.63z M201.63,117.074
	c0.231,0.07,4.132,4.575,5.507,5.415c1.594,0.973,3.808,1.136,5.593,0.653c3.929-1.061,5.606-4.687,7.502-7.853l0.278,0.282
	c0.235,0.627,0.095,1.34-0.074,1.972c-0.709,2.666-2.956,5.103-5.35,6.386c-0.289,0.152-0.584,0.291-0.887,0.414
	c-0.303,0.124-0.61,0.232-0.923,0.325c-0.313,0.093-0.63,0.169-0.951,0.231c-0.319,0.062-0.643,0.107-0.968,0.137
	s-0.651,0.043-0.978,0.041c-0.326-0.003-0.651-0.021-0.977-0.056c-0.324-0.035-0.646-0.086-0.966-0.153
	c-0.32-0.066-0.636-0.149-0.947-0.247c-2.939-0.949-4.493-3.275-5.78-5.904C201.611,118.123,201.545,117.68,201.63,117.074z
	 M146.751,84.497c-2.815-1.76-3.918-4.62-4.558-7.708c2.246,0.975,3.667,6.713,8.583,7.79c1.147,0.251,2.323-0.002,3.385-0.46
	c4.407-1.903,4.725-5.642,6.859-6.993l0.065,0.587c-0.233,1.112-0.459,2.259-0.979,3.279c-1.146,2.252-3.431,3.968-5.844,4.634
	C151.765,86.313,148.944,85.867,146.751,84.497z M170.261,112.107c-0.629,2.476-2.477,5.069-4.678,6.336
	c-2.441,1.406-5.643,1.72-8.336,0.921c-3.192-0.948-4.326-3.313-5.732-6.059c-0.196-0.578-0.253-1.049-0.298-1.652l0.254-0.237
	c1.209,0.966,1.576,2.705,2.754,3.736c0.566,0.494,1.146,0.984,1.749,1.431c1.712,1.269,3.777,1.967,5.911,1.585
	c4.281-0.765,5.862-4.488,8.038-7.659l0.435,0.294C170.375,111.259,170.374,111.662,170.261,112.107z M170.539,94.496
	c-0.134-0.783-0.289-1.456-0.087-2.243c0.729,0.176,1.529,1.943,2.023,2.604c1.92,2.572,4.328,3.459,7.229,4.518
	c0.84-0.25,1.696-0.49,2.519-0.796c3.605-1.345,5.175-4.27,6.719-7.539c0.275,0.143,0.302,0.084,0.396,0.36
	c0.274,0.815-0.096,1.896-0.384,2.659c-1.039,2.754-3.034,4.888-5.763,6.018c-2.442,1.013-5.173,1.047-7.605-0.026
	C173.242,99.018,171.466,96.847,170.539,94.496z M195.024,152.081c-0.617,3.228-1.921,6.104-4.765,7.958
	c-2.452,1.599-5.428,2.25-8.299,1.592c-2.772-0.633-5.195-2.522-6.629-4.959c-1.743-2.963-2.146-7.669-1.221-10.977
	c0.329,0.178,0.71,0.277,0.881,0.632c0.846,1.766,0.032,5.93,1.169,8.584c0.909,2.127,3.001,3.834,5.132,4.629
	c2.333,0.869,4.726,0.782,6.963-0.319c3.091-1.522,5.314-4.782,5.67-8.214c0.148-1.443,0.013-3.185,0.485-4.553l0.526,0.16
	c0.267,0.515,0.379,1.132,0.534,1.692C195.359,149.564,195.26,150.839,195.024,152.081z M215.315,203.584
	c-0.156,0.89-0.527,1.595-1.016,2.352c-2.049,3.173-5.201,4.023-8.652,4.835c-2.796-0.801-5.018-1.506-6.999-3.804
	c-1.44-1.666-2.491-3.996-2.345-6.228c2.322,1.376,2.999,6.372,8.423,7.865c6.682,1.839,8.798-5.938,10.7-6.995
	C215.684,202.276,215.459,202.91,215.315,203.584z M235.691,154.25c-1.552,2.383-3.911,4.09-6.728,4.613
	c-2.549,0.473-5.427-0.031-7.557-1.543c-2.5-1.773-3.816-4.849-4.25-7.803c1.122,0.438,2.022,2.4,2.74,3.371
	c1.531,2.066,3.25,4.172,5.982,4.502c3.769,0.455,7.056-1.621,8.945-4.752c0.57-0.945,0.942-2.075,1.807-2.788l0.369,0.146
	l0.158,0.964C236.817,152.191,236.385,153.183,235.691,154.25z"/>
<path fill="#FEFEFE" d="M88.083,137.648c0.855-0.054,1.579-0.041,2.399,0.241c1.447,0.497,2.688,1.406,3.346,2.819
	c0.461,0.992,0.541,2.195,0.146,3.223c-0.538,1.403-1.803,2.393-3.146,2.967c-0.904,0.064-1.922,0.174-2.814-0.006
	c-1.239-0.249-2.47-1.052-3.133-2.137c-0.08-0.134-0.152-0.271-0.218-0.413c-0.065-0.142-0.123-0.287-0.174-0.434
	c-0.05-0.148-0.092-0.298-0.126-0.45c-0.033-0.152-0.06-0.306-0.076-0.461c-0.019-0.155-0.028-0.31-0.029-0.466
	c-0.001-0.156,0.006-0.312,0.021-0.467c0.016-0.155,0.039-0.309,0.071-0.461c0.031-0.153,0.071-0.303,0.119-0.452
	C85.072,139.217,86.406,138.513,88.083,137.648z"/>
<path fill="#FEFEFE" d="M184.78,137.706c0.997,0.142,2.028,0.338,2.916,0.833c1.132,0.631,1.995,1.756,2.284,3.022
	c0.037,0.156,0.065,0.313,0.085,0.473c0.02,0.16,0.031,0.319,0.034,0.479s-0.003,0.32-0.018,0.479
	c-0.014,0.16-0.036,0.319-0.066,0.476c-0.031,0.158-0.069,0.313-0.117,0.466c-0.047,0.153-0.103,0.304-0.166,0.451
	c-0.063,0.147-0.134,0.291-0.212,0.431c-0.079,0.14-0.164,0.275-0.257,0.406c-1.017,1.425-2.348,1.863-4.01,2.104
	c-0.749-0.084-1.557-0.138-2.256-0.435c-1.171-0.498-2.185-1.473-2.617-2.678c-0.436-1.21-0.299-2.539,0.303-3.665
	C181.589,138.854,183.026,138.255,184.78,137.706z"/>
<path fill="#FEFEFE" d="M133.886,151.753c10.601-1.056,22.3,2.9,30.527,9.527c8.747,7.047,15.021,17.087,16.227,28.368
	c1.209,11.307-1.706,22.734-8.951,31.609c-8,9.802-18.968,15.074-31.419,16.363c-10.938,1.187-23.034-2.627-31.562-9.464
	c-0.56-0.448-1.107-0.909-1.644-1.384c-0.536-0.476-1.061-0.963-1.572-1.464c-0.513-0.501-1.012-1.015-1.499-1.54
	s-0.961-1.063-1.421-1.611s-0.907-1.109-1.34-1.68c-0.433-0.571-0.851-1.152-1.255-1.744s-0.793-1.193-1.168-1.804
	c-0.374-0.61-0.732-1.23-1.077-1.859c-0.343-0.628-0.671-1.265-0.983-1.909c-0.313-0.646-0.608-1.297-0.889-1.957
	c-0.279-0.659-0.543-1.325-0.791-1.998c-0.247-0.672-0.478-1.35-0.691-2.033c-0.214-0.685-0.41-1.373-0.59-2.066
	c-0.181-0.693-0.343-1.391-0.487-2.093c-0.146-0.702-0.273-1.406-0.384-2.114c-0.111-0.707-0.204-1.417-0.279-2.13
	c-1.166-11.093,2.571-22.446,9.568-31.065C110.517,157.467,121.056,153.033,133.886,151.753z"/>
<path fill="#170338" d="M116.251,185.274c-0.372-1.446-0.417-2.706,0.331-4.052c0.658-1.184,1.919-2.242,3.238-2.588
	c3.233-0.846,26.945-0.715,31.435-0.385c1.229,0.09,2.878,0.193,3.934,0.856c1.196,0.752,2.048,1.709,2.396,3.104
	c0.413,1.658,0.041,3.144-0.527,4.711c-0.388,1.013-0.837,1.945-1.387,2.881c-3.592,6.117-9.818,10.951-16.694,12.74
	c0.009,3.357-0.568,11.172,0.506,13.943c0.906,2.332,2.88,3.971,5.166,4.869c2.874,1.127,5.486,0.919,8.257-0.32
	c3.37-1.506,3.152-2.82,4.43-5.803c0.336-0.785,0.746-1.259,1.537-1.602c0.647,0.047,1.008,0.082,1.475,0.58
	c0.604,0.644,0.809,1.69,0.792,2.543c-0.046,2.33-1.487,4.601-3.136,6.153c-2.653,2.5-6.551,3.765-10.168,3.601
	c-4.733-0.215-8.033-2.438-11.112-5.889c-1.847,2.375-4.146,4.1-6.992,5.094c-0.439,0.158-0.887,0.292-1.34,0.403
	s-0.911,0.2-1.373,0.265c-0.463,0.065-0.927,0.106-1.394,0.125c-0.467,0.018-0.934,0.011-1.399-0.02
	c-0.466-0.029-0.93-0.083-1.39-0.16c-0.461-0.077-0.916-0.178-1.366-0.301c-0.451-0.123-0.894-0.27-1.329-0.438
	c-0.436-0.169-0.861-0.359-1.277-0.571c-2.826-1.419-5.912-4.704-6.771-7.865c-0.229-0.842,0.041-2.041,0.506-2.762
	c0.429-0.666,0.873-0.798,1.62-0.931c2.104,0.713,2.618,4.543,4.192,6.215c1.531,1.629,4.267,2.375,6.436,2.427
	c2.559,0.062,5.392-0.944,7.196-2.794c3.659-3.751,2.385-12.003,2.299-16.916c-1.834-0.426-3.543-1.23-5.169-2.164
	C123.758,197.118,117.896,191.494,116.251,185.274z"/>
<path fill="#010013" d="M116.251,185.274c-0.372-1.446-0.417-2.706,0.331-4.052c0.658-1.184,1.919-2.242,3.238-2.588
	c3.233-0.846,26.945-0.715,31.435-0.385c1.229,0.09,2.878,0.193,3.934,0.856c1.196,0.752,2.048,1.709,2.396,3.104
	c0.413,1.658,0.041,3.144-0.527,4.711c-0.278-0.908,0.068-1.838,0.167-2.765c0.214-2.012-0.603-2.971-1.812-4.417
	c-3.27-1.449-7.212-0.988-10.719-0.949c2.704,0.071,5.37,0.059,8.042,0.522c-6.122-0.087-12.25-0.054-18.373-0.065
	c-4.843-0.01-9.726-0.188-14.546,0.338c-1.333,1.174-2.686,2.56-3.017,4.381C116.698,184.526,116.564,184.797,116.251,185.274z"/>
<path fill="#170338" d="M80.925,79.625c-1.793-12.446-13.531-22.06-27.754-22.06c-15.464,0-28,11.361-28,25.375
	c0,11.498,8.44,21.203,20.01,24.321C46.991,92.309,62.117,80.519,80.925,79.625z"/>
<path fill="#170338" d="M193.459,76.451c1.793-12.446,13.531-22.06,27.754-22.06c15.464,0,28,11.361,28,25.375
	c0,11.498-8.44,21.203-20.01,24.321C227.393,89.134,212.266,77.344,193.459,76.451z"/>
</svg>
