<?xml version="1.0" encoding="utf-8"?>
<!-- Generator: Adobe Illustrator 16.0.3, SVG Export Plug-In . SVG Version: 6.00 Build 0)  -->
<svg version="1.2" baseProfile="tiny" id="Ebene_1" xmlns="http://www.w3.org/2000/svg" xmlns:xlink="http://www.w3.org/1999/xlink"
	 x="0px" y="0px" width="218.704px" height="84px" viewBox="0 202.828 218.704 84" xml:space="preserve">
<path fill="#FBDF81" d="M196.23,243.138l-0.494-0.365c-1.463,1.028-2.381,2.468-2.951,4.172l0.455,0.313 M180.223,246.43
	l-0.504-0.275c-2.326,1.979-3.197,4.749-3.984,7.568l0.391,0.216 M145.432,256.643c-1.436,1.387-2.641,2.417-3.678,3.599
	c-1.072,1.22-2.092,2.523-2.936,3.91c-1.582,2.604-2.838,5.367-2.855,8.506c-0.01,2.062,1.52,2.99,3.146,1.753
	c1.004-0.766,1.926-1.982,2.291-3.178C142.84,266.522,144.045,261.738,145.432,256.643z M201.385,249.434
	c-0.322,0.97-0.43,2.108-1.014,2.878c-1.658,2.173-3.396,4.307-5.322,6.239c-1.621,1.624-3.641,2.962-6.049,1.647
	c-2.488-1.358-2.5-3.865-2.447-6.524c-0.344,0.414-0.625,0.733-0.879,1.067c-0.266,0.344-0.471,0.733-0.756,1.057
	c-0.729,0.824-1.414,1.714-2.256,2.413c-1.592,1.324-3.189,0.858-3.762-1.134c-0.314-1.112-0.297-2.322-0.443-3.588
	c-0.609,1.103-1.178,2.184-1.809,3.229c-0.318,0.532-0.701,1.043-1.141,1.478c-1.244,1.237-2.449,1.058-3.188-0.538
	c-0.35-0.759-0.443-1.641-0.656-2.476c-0.66,0.733-1.303,1.558-2.051,2.27c-2.357,2.242-3.936,1.881-5.123-1.164
	c-0.686,0.842-1.318,1.703-2.039,2.482c-0.885,0.959-1.928,1.682-3.305,1.084c-1.398-0.604-1.641-1.901-1.697-3.243
	c-0.016-0.458,0.102-0.922,0.191-1.687c-1.268,1.439-2.262,2.74-3.451,3.831c-0.543,0.498-1.609,0.96-2.18,0.747
	c-0.682-0.253-1.52-1.241-1.533-1.925c-0.037-2.072,0.289-4.151,0.494-6.486c-0.418,0.868-0.924,1.57-1.096,2.346
	c-1.285,5.816-2.482,11.652-3.762,17.468c-0.242,1.115-0.625,2.225-1.105,3.265c-1.502,3.246-4.908,5.002-8.412,4.425
	c-2.986-0.494-4.852-3.382-4.186-6.796c1.279-6.546,4.596-11.847,9.977-15.816c0.191-0.144,0.395-0.275,0.582-0.421
	c0.068-0.06,0.113-0.149,0.166-0.223c-3.885,0.56-6.637-1.937-6.764-6.403c-0.053-1.797,0.143-3.682,0.65-5.401
	c1.674-5.691,4.789-10.582,8.979-14.732c1.049-1.036,2.479-1.822,3.875-2.336c1.734-0.636,3.352,0.33,3.811,2.09
	c0.619,2.391,0.014,4.58-1.568,6.447c-0.393,0.459-1.07,0.676-1.943,1.196l0.643-6.39c-0.535,0.345-0.871,0.474-1.09,0.713
	c-4.262,4.634-7.52,9.848-8.914,16.063c-0.299,1.328-0.277,2.781-0.131,4.15c0.193,1.849,1.061,2.187,2.811,1.651
	c2.076-0.637,3.359-1.752,3.449-4.074c0.039-0.99,0.389-1.971,0.598-2.951c-0.084-0.065-0.166-0.188-0.215-0.174
	c-1.168,0.303-2.336,0.307-2.742-1.043c-0.41-1.373,0.84-1.783,1.766-2.207c0.682-0.313,1.459-0.524,2.207-0.561
	c1.98-0.093,3.148,1.259,2.84,3.209c-0.258,1.596-0.564,3.185-0.846,4.776l0.391,0.227c0.619-0.903,1.334-1.76,1.834-2.729
	c0.525-1.016,0.867-2.132,1.242-3.22c0.307-0.88,0.713-1.54,1.756-0.987c0.906,0.479,2.27,0.626,1.752,2.271
	c-0.883,2.788-1.729,5.589-2.572,8.392c-0.105,0.344-0.125,0.719-0.244,1.418c1.957-1.384,3.104-3.007,3.928-4.839
	c0.709-1.571,1.225-3.229,1.861-4.836c0.242-0.615,0.305-1.626,1.344-1.237c0.967,0.358,2.33,0.535,2.113,2.083
	c-0.152,1.084-0.482,2.148-0.758,3.215c-0.582,2.26-1.184,4.52-1.529,6.907c1.252-1.179,2.621-2.1,3.213-3.855
	c0.879-2.624,1.926-5.204,3.086-7.713c0.641-1.38,3.092-1.485,4.008-0.261c0.207,0.271,0.021,0.935-0.139,1.362
	c-1.094,2.955-2.238,5.896-3.344,8.847c-0.107,0.289-0.059,0.637-0.111,1.321c2.047-1.998,3.641-3.89,4.855-6.156
	c1.014-1.885,2.205-3.71,3.561-5.361c1.053-1.278,2.576-1.849,4.27-0.948c1.898-4.93,3.771-9.81,5.662-14.688
	c0.607-1.571,1.391-1.801,3.143-0.977c1.381,0.653,1.49,1.196,0.768,2.773c-3.344,7.301-6.406,14.705-8.061,22.61
	c-0.102,0.469-0.15,0.949-0.191,1.429c-0.018,0.166,0.053,0.344,0.125,0.758c0.588-0.519,1.145-0.846,1.463-1.328
	c1.592-2.381,3.119-4.808,4.676-7.213c1.221-1.884,2.299-3.89,3.725-5.601c1.455-1.745,3.768-2.176,5.025-1.345
	c1.463,0.966,1.926,3.371,0.984,5.527c-1.064,2.426-3.191,3.667-5.508,4.55c-0.996,0.379-1.473,0.907-1.584,1.922
	c-0.137,1.237-0.459,2.465-0.49,3.699c-0.041,1.582,1.078,2.291,2.359,1.395c1.596-1.12,3.047-2.476,4.443-3.85
	c1.18-1.157,2.186-2.488,3.271-3.743L201.385,249.434z"/>
<path fill="#FFFFFF" d="M109.234,247.164l-0.67-0.366l-1.76,2.304l-1.123,2.136l0.662,0.576 M106.693,258.446l-0.451-0.205
	c-0.65,0.623-1.324,1.217-1.939,1.87c-2.84,3.004-5.723,6.015-6.91,10.12c-0.377,1.296-0.539,2.764-0.346,4.084
	c0.24,1.665,1.742,2.11,3,1.032c0.641-0.549,1.318-1.237,1.59-2.002C103.381,268.402,105.021,263.418,106.693,258.446z
	 M104.49,255.996l-2.287-1.012c-0.646,0.824-1.332,1.794-2.121,2.666c-0.574,0.637-1.234,1.224-1.947,1.696
	c-1.625,1.078-3.439,0.522-3.809-1.369c-0.303-1.557-0.41-3.33,0.035-4.814c0.854-2.879,2.064-5.666,3.313-8.406
	c0.715-1.574,2.211-1.786,3.723-0.872c0.803,0.483,0.59,1.025,0.295,1.707c-1.178,2.726-2.346,5.457-3.432,8.222
	c-0.336,0.854-0.406,1.813-0.43,2.805c2.041-1.637,4.045-3.246,4.748-5.906c0.744-2.812,2.1-5.27,4.334-7.153
	c2.094-1.76,4.725-1.401,5.703,0.823c0.34,0.772,0.309,1.776,0.23,2.656c-0.082,0.983-0.408,1.949-0.678,3.111
	c1.461-1.217,2.869-2.205,3.092-4.175c0.107-0.946,0.477-1.856,0.723-2.785c0.336-1.259,1.195-1.349,2.25-1.011
	c0.975,0.309,1.602,0.795,1.258,1.998c-0.387,1.359-0.674,2.75-1.096,4.51c1.193-1.822,2.1-3.349,3.154-4.764
	c0.559-0.747,1.285-1.467,2.092-1.919c1.539-0.868,2.986,0.053,2.871,1.825c-0.08,1.282-0.436,2.548-0.684,3.817
	c-0.592,3.017-1.219,6.027-1.775,9.048c-0.121,0.657-0.016,1.359-0.016,2.458c0.936-0.657,1.52-1.032,2.061-1.46
	c0.486-0.39,0.918-0.845,1.395-1.248c1.334-1.137-0.434,2.879-0.58,2.795c-0.793,0.807-1.529,1.714-2.416,2.43
	c-1.971,1.603-4.346,0.876-4.617-1.637c-0.232-2.193,0.164-4.478,0.473-6.699c0.279-1.978,0.816-3.921,1.154-5.916
	c-1.721,2.646-3.053,5.465-3.906,8.506c-0.377,1.342-0.68,2.701-1.061,4.04c-0.348,1.22-1.068,1.574-1.947,0.716
	c-0.67-0.657-1.27-1.77-1.266-2.677c0.01-2.434,0.361-4.863,0.578-7.269c-1.229,1.035-2.414,2.155-2.83,3.993
	c-1.113,4.916-2.328,9.807-3.566,14.694c-0.664,2.625-1.59,5.184-3.486,7.179c-0.896,0.941-2.035,1.797-3.23,2.291
	c-3.334,1.38-6.285-0.293-7.105-3.821c-0.674-2.885,0.039-5.53,1.385-8.054c2.113-3.967,5.291-7.053,8.461-10.141
	C103.838,256.58,104.16,256.299,104.49,255.996z"/>
<path fill="#FFFFFF" d="M22.507,251.918c1.71-0.57,2.948-0.938,4.14-1.411c0.313-0.121,0.637-0.542,0.713-0.883
	c0.33-1.449,0.528-2.928,0.851-4.38c0.661-2.985,1.37-5.962,2.062-8.94l-0.328-0.146l-0.054-0.024 M31.531,258.298
	c0.577-0.237,0.827-0.397,1.095-0.435c0.525-0.077,1.057-0.08,1.589-0.115c-0.045,0.584,0.087,1.265-0.167,1.738
	c-0.838,1.575-2.691,2.624-3.991,2.329c-1.731-0.393-2.499-1.711-2.784-3.313c-0.25-1.412-0.337-2.852-0.515-4.479
	c-1.72,0.808-3.441,1.568-5.109,2.431c-0.303,0.156-0.456,0.709-0.567,1.108c-0.427,1.522-0.802,3.063-1.209,4.593
	c-0.441,1.676-1.154,2.093-2.85,1.695c-1.408-0.329-2.215-1.498-1.888-2.909c0.302-1.307,0.685-2.604,1.126-3.873
	c3.761-10.72,8.99-20.683,15.507-29.971c1.367-1.947,2.458-2.323,4.234-1.638c1.011,0.39,1.408,0.973,1.116,2.1
	c-1.29,5.02-2.673,10.022-3.744,15.094c-0.921,4.359-1.495,8.795-2.148,13.206C31.121,256.57,31.399,257.335,31.531,258.298z"/>
<path fill="#FFFFFF" d="M66.885,231.415c-3.748,8.963-6.988,17.899-8.581,27.425c1.168-0.89,2.243-1.829,3.165-2.899
	c4.16-4.867,7.279-10.289,8.127-16.745C69.971,236.331,69.594,233.54,66.885,231.415z M63.016,230.452
	c-0.893-0.128-1.818-0.037-2.469-0.417c-0.697-0.406-1.24-1.202-1.633-1.946c-0.102-0.191,0.588-1.164,0.945-1.186
	c2.871-0.156,5.756-0.226,8.5,0.914c3.469,1.439,5.256,4.109,5.443,7.791c0.33,6.414-1.975,12.107-5.371,17.321
	c-1.762,2.708-4.012,5.152-6.338,7.411c-1.199,1.164-2.965,1.981-4.615,2.389c-2.354,0.58-3.762-0.983-3.408-3.413
	c0.949-6.494,2.941-12.706,5.174-18.849C60.453,237.135,61.74,233.831,63.016,230.452z"/>
<path fill="#FFFFFF" d="M78.189,247.205c1.967-0.859,3.41-2.886,3.072-4.499L78.189,247.205z M85.656,261.684
	c0.98-0.619,1.818-0.925,2.326-1.516c0.955-1.116,0.412-2.371,0.018-3.811C86.529,257.793,85.475,259.146,85.656,261.684z
	 M92.494,243.029l0.709-3.416c-1.496,0.205-1.783,1.237-2.072,2.168c-1.154,3.724-0.75,7.404,0.42,11.049
	c0.484,1.505,1.127,2.981,1.412,4.524c0.668,3.645-1.209,6.605-4.324,7.176c-1.635,0.299-3.084,0.035-4.164-1.287
	c-1.127-1.372-1.158-2.992-0.41-4.48c0.59-1.175,1.396-2.346,2.389-3.188c0.924-0.782,1.434-1.401,0.959-2.606
	c-0.17-0.428-0.102-0.95-0.174-1.801c-0.549,0.705-0.9,1.227-1.318,1.689c-2.002,2.193-3.924,4.471-6.063,6.521
	c-1.369,1.313-3.195,1.859-5.064,1.004c-1.814-0.827-2.486-2.461-2.518-4.362c-0.094-6.06,2.289-11.106,6.414-15.379
	c0.592-0.611,1.551-0.963,2.402-1.206c1.662-0.47,3.014,0.473,3.41,2.19c0.615,2.676-0.375,4.751-2.5,6.271
	c-1.156,0.831-2.523,1.362-3.744,2.113c-0.43,0.265-0.9,0.72-1.025,1.179c-0.354,1.29-0.674,2.618-0.758,3.945
	c-0.109,1.87,1.088,2.549,2.668,1.554c3.016-1.898,5.238-4.627,7.316-7.459c0.313-0.432,0.219-1.183,0.271-1.787
	c0.219-2.476,0.219-4.992,0.688-7.418c0.373-1.912,1.471-3.557,3.672-4.001c2.537-0.515,4.164,0.931,3.893,3.485
	C94.732,241.865,94.234,242.619,92.494,243.029z"/>
<path fill="#FFFFFF" d="M39.186,257.56c0.84,0.095-0.334,4.234-1.958,3.48c-1.609-0.747-1.981-2.336-1.939-3.904
	c0.045-1.721,0.244-3.459,0.591-5.144c1.637-7.92,4.116-15.592,7.015-23.121c0.299-0.778,1.116-1.696,1.856-1.877
	c0.834-0.202,2.27,0.063,2.684,0.657c0.466,0.671,0.378,2.058,0.021,2.92c-2.875,6.98-5.364,14.085-7.186,21.413
	C39.818,253.789,39.555,255.638,39.186,257.56z"/>
<path fill="#FFFFFF" d="M47.102,251.654c-1.28-0.167-1.951-0.827-2.048-1.988c-0.101-1.199,0.762-1.47,1.745-1.647
	c1.735-0.313,3.459-0.692,5.18-1.082c0.796-0.177,1.578-0.316,1.93,0.644c0.344,0.942,0.261,1.96-0.775,2.322
	C51.158,250.591,49.114,251.081,47.102,251.654z"/>
<path fill="#FFFFFF" d="M101.438,237.833c1.301,0.014,2.086,0.807,2.041,2.055c-0.049,1.324-1.234,2.562-2.447,2.558
	c-1.275-0.007-2.516-1.286-2.451-2.523C98.637,238.816,100.006,237.815,101.438,237.833z"/>
<path fill="#FBDF81" d="M171.521,237.826c1.293-0.015,2.18,0.769,2.203,1.939c0.025,1.241-1.344,2.691-2.533,2.677
	c-1.227-0.018-2.393-1.207-2.367-2.419C168.85,238.765,169.984,237.843,171.521,237.826z"/>
<path fill="#FFFFFF" d="M132.588,256.25c1.293-0.015,2.18,0.768,2.205,1.939c0.023,1.24-1.346,2.69-2.535,2.677
	c-1.227-0.018-2.393-1.206-2.367-2.42C129.916,257.188,131.051,256.268,132.588,256.25z"/>
</svg>
