<?xml version="1.0" encoding="UTF-8" standalone="no"?>
<!-- Generator: Adobe Illustrator 16.0.3, SVG Export Plug-In . SVG Version: 6.00 Build 0)  -->

<svg
   version="1.2"
   id="Ebene_1"
   x="0px"
   y="0px"
   width="279.06631"
   height="31.353001"
   viewBox="0 0 279.06632 31.353001"
   xml:space="preserve"
   sodipodi:docname="30ab4e4c35cc30ac3843af48ea9e4583.svg"
   xmlns:inkscape="http://www.inkscape.org/namespaces/inkscape"
   xmlns:sodipodi="http://sodipodi.sourceforge.net/DTD/sodipodi-0.dtd"
   xmlns="http://www.w3.org/2000/svg"
   xmlns:svg="http://www.w3.org/2000/svg"><defs
   id="defs24" /><sodipodi:namedview
   id="namedview22"
   pagecolor="#ffffff"
   bordercolor="#666666"
   borderopacity="1.0"
   inkscape:pageshadow="2"
   inkscape:pageopacity="0.0"
   inkscape:pagecheckerboard="0" />
<g
   id="Pages"
   sketch:type="MSPage"
   transform="translate(-19.356,-26.199)">
	<g
   id="MEOB-3003-K10656-st_a"
   transform="translate(-165,-36)"
   sketch:type="MSArtboardGroup">
		<g
   id="Navigation"
   transform="translate(15,15)"
   sketch:type="MSLayerGroup">
			<g
   id="Branding"
   transform="translate(150,21)"
   sketch:type="MSShapeGroup">
				<path
   id="Fill-1"
   fill="#ffffff"
   d="M 22.44,57.122 V 40.504 c 1.67,-1.627 3.469,-3.426 6.21,-3.426 1.969,0 3.469,1.113 3.469,4.112 v 15.932 h 3.083 V 40.504 c 1.67,-1.627 3.469,-3.426 6.21,-3.426 1.97,0 3.469,1.113 3.469,4.112 v 15.932 h 3.083 V 41.19 c 0,-5.526 -3.169,-6.767 -6.124,-6.767 -2.613,0 -5.097,1.412 -7.067,3.512 -0.813,-2.057 -2.827,-3.512 -5.696,-3.512 -2.141,0 -4.583,1.113 -6.467,3.211 l -0.171,0.172 v -2.955 h -3.083 v 22.271 h 3.084" />
				<path
   id="Fill-2"
   fill="#ffffff"
   d="m 73.478,45.987 c 0,-6.425 -3.041,-11.563 -9.123,-11.563 -6.081,0 -9.122,5.139 -9.122,11.563 0,6.424 3.041,11.564 9.122,11.564 6.082,10e-4 9.123,-5.14 9.123,-11.564 z m -3.084,0 c 0,5.739 -2.356,8.909 -6.039,8.909 -3.684,0 -6.039,-3.17 -6.039,-8.909 0,-5.739 2.355,-8.909 6.039,-8.909 3.682,0 6.039,3.17 6.039,8.909 z" />
				<path
   id="Fill-3"
   fill="#ffffff"
   d="M 95.533,34.852 H 92.406 L 86.754,53.268 H 86.667 L 81.015,34.852 h -3.127 l 6.852,22.271 h 4.113 l 6.68,-22.271" />
				<path
   id="Fill-4"
   fill="#ffffff"
   d="m 103.228,43.932 c 0.257,-4.112 2.27,-6.854 5.996,-6.854 3.341,0 5.311,2.741 5.311,6.854 z m 12.677,7.195 c -1.284,2.313 -3.426,3.77 -6.168,3.77 -3.684,0 -6.596,-3.427 -6.596,-8.31 h 14.477 V 44.53 c 0,-7.109 -3.854,-10.106 -8.48,-10.106 -5.482,0 -9.08,4.369 -9.08,11.563 0,8.138 4.712,11.564 9.68,11.564 5.055,0 7.109,-2.655 8.566,-5.182 z" />
				<g
   id="Elevator"
   transform="translate(121.18033)">
					<path
   id="Fill-5"
   fill="#ff7b00"
   d="m 22.934,43.932 c 0.256,-4.112 2.27,-6.854 5.995,-6.854 3.341,0 5.312,2.741 5.312,6.854 z m 12.677,7.195 c -1.284,2.313 -3.427,3.77 -6.167,3.77 -3.684,0 -6.597,-3.427 -6.597,-8.31 H 37.324 V 44.53 c 0,-7.109 -3.854,-10.106 -8.479,-10.106 -5.482,0 -9.08,4.369 -9.08,11.563 0,8.138 4.711,11.564 9.68,11.564 5.053,0 7.109,-2.655 8.565,-5.182 z" />
					<path
   id="Fill-6"
   fill="#ff7b00"
   d="m 46.018,57.122 h 3.083 V 26.199 h -3.083 z" />
					<path
   id="Fill-7"
   fill="#ff7b00"
   d="m 60.522,43.932 c 0.256,-4.112 2.27,-6.854 5.995,-6.854 3.34,0 5.312,2.741 5.312,6.854 z M 73.2,51.127 c -1.285,2.313 -3.428,3.77 -6.168,3.77 -3.684,0 -6.597,-3.427 -6.597,-8.31 H 74.912 V 44.53 c 0,-7.109 -3.854,-10.106 -8.479,-10.106 -5.482,0 -9.082,4.369 -9.082,11.563 0,8.138 4.713,11.564 9.682,11.564 5.055,0 7.109,-2.655 8.564,-5.182 z" />
					<path
   id="Fill-8"
   fill="#ff7b00"
   d="M 97.524,34.852 H 94.399 L 88.746,53.268 H 88.659 L 83.007,34.852 h -3.129 l 6.854,22.271 h 4.113 l 6.679,-22.271" />
					<path
   id="Fill-9"
   fill="#ff7b00"
   d="m 115.756,51.212 c -1.802,2.056 -4.627,3.685 -6.854,3.685 -1.713,0 -3.684,-1.372 -3.684,-3.427 0,-3.084 3.47,-5.141 10.537,-6.383 v 6.125 z M 105.475,40.547 c 0.602,-1.498 2.271,-3.469 5.697,-3.469 2.656,0 4.584,1.113 4.584,4.068 v 1.199 c -9.895,1.757 -13.621,4.198 -13.621,9.081 0,4.068 2.912,6.125 6.339,6.125 3.34,0 5.825,-1.801 7.367,-3.513 l 0.343,3.083 h 3.168 c -0.299,-1.155 -0.513,-2.355 -0.513,-4.797 v -11.22 c 0,-4.884 -3.94,-6.682 -7.71,-6.682 -4.197,0 -6.939,2.141 -8.352,4.711 z" />
					<path
   id="Fill-10"
   fill="#ff7b00"
   d="m 124.663,34.852 v 2.655 h 3.64 v 16.359 c 0,2.828 1.412,3.686 4.755,3.686 1.798,0 3.04,-0.172 3.597,-0.343 v -2.528 c -0.814,0.129 -1.714,0.216 -2.741,0.216 -1.798,0 -2.526,-0.515 -2.526,-1.542 V 37.507 h 5.139 v -2.655 h -5.139 v -7.324 h -3.084 v 7.324 h -3.641" />
					<path
   id="Fill-11"
   fill="#ff7b00"
   d="m 160.112,45.987 c 0,-6.425 -3.041,-11.563 -9.123,-11.563 -6.082,0 -9.123,5.139 -9.123,11.563 0,6.424 3.041,11.564 9.123,11.564 6.082,0 9.123,-5.14 9.123,-11.564 z m -3.085,0 c 0,5.739 -2.355,8.909 -6.038,8.909 -3.684,0 -6.039,-3.17 -6.039,-8.909 0,-5.739 2.355,-8.909 6.039,-8.909 3.682,0 6.038,3.17 6.038,8.909 z" />
					<path
   id="Fill-12"
   fill="#ff7b00"
   d="m 166.833,57.122 h 3.083 V 44.788 c 1.457,-4.583 3.471,-7.11 7.326,-7.196 v -3.083 c -3.686,0 -5.527,1.713 -7.239,4.753 h -0.087 v -4.41 h -3.083 v 22.27" />
				</g>
				<path
   id="Fill-38"
   fill="#ff7b00"
   d="m 127.72,41.367 h 5.737 v -5.736 h -5.737 z" />
				<path
   id="Fill-39"
   fill="#ffffff"
   d="m 127.72,56.641 h 5.737 v -5.735 h -5.737 z" />
			</g>
		</g>
	</g>
</g>
</svg>
